<svg xmlns="http://www.w3.org/2000/svg"><g fill="none" fill-rule="evenodd"><path d="M8.693 10.707a1.862 1.862 0 1 1-.006-3.724 1.862 1.862 0 0 1 .006 3.724" fill="#961D59"/><path d="M12.336 9.776a.853.853 0 1 1 0-1.707.853.853 0 0 1 0 1.707m3.303.78a.853.853 0 1 1 .017-.07c-.01.022-.01.044-.017.07m-.776-2.2a.855.855 0 0 1-.925-1.279.855.855 0 0 1 1.559.255c.024.11.027.222.009.333a.821.821 0 0 1-.642.691m3.113 2.111a.849.849 0 1 1-1.67-.296.849.849 0 0 1 .982-.692c.433.073.74.465.709.905a.221.221 0 0 0-.016.076m-.696-2.092a.853.853 0 1 1-.279-1.684.853.853 0 0 1 .279 1.684m-.635 5.003a.853.853 0 1 1-1.492-.828.853.853 0 0 1 1.492.828m-.326-7.74a.853.853 0 1 1-.84-1.485.853.853 0 0 1 .84 1.485" fill="#D62783"/><path d="M8.842 17.534c-4.798 0-8.687-3.855-8.687-8.612C.155 4.166 4.045.31 8.842.31a8.645 8.645 0 0 1 5.279 1.77l-1.056 1.372a6.987 6.987 0 0 0-7.297-.709 6.872 6.872 0 0 0 0 12.356 6.987 6.987 0 0 0 7.297-.709l1.056 1.374a8.66 8.66 0 0 1-5.279 1.77z" fill="#D62783" fill-rule="nonzero"/></g></svg>