<svg viewBox="0 0 24 24" fill="none" xmlns="http://www.w3.org/2000/svg"><path fill-rule="evenodd" clip-rule="evenodd" d="M12 18.75A6.75 6.75 0 0018.75 12H21a9 9 0 11-9-9v2.25a6.75 6.75 0 000 13.5zm8.753-8.852l-2.188.524a6.678 6.678 0 00-.326-1.005l2.078-.862c.18.432.325.88.436 1.343zm-1.078-2.601l-1.917 1.177a6.777 6.777 0 00-.624-.857l1.71-1.462c.305.357.584.74.83 1.142zm-1.83-2.14l-1.462 1.71a6.773 6.773 0 00-.857-.625l1.177-1.917c.403.247.785.526 1.142.831zm-2.4-1.474l-.862 2.078a6.68 6.68 0 00-1.005-.326l.524-2.188c.463.11.911.257 1.343.436zm-.384 10.332l-2.311-1.651V8.25h-1.5v4.886l.314.224 2.625 1.875.872-1.22z" fill="#6F7682"/></svg>