<svg width="16" height="8" viewBox="0 0 16 8" xmlns="http://www.w3.org/2000/svg"><path d="M10.229 1.301A3.493 3.493 0 0 1 11.5 4a3.493 3.493 0 0 1-1.271 2.699c1.547-.431 3.008-1.326 4.393-2.699-1.385-1.373-2.846-2.268-4.393-2.699zM5.771 6.7A3.493 3.493 0 0 1 4.5 4c0-1.086.495-2.057 1.271-2.699C4.224 1.732 2.763 2.627 1.378 4c1.385 1.373 2.846 2.268 4.393 2.699zM8 8C5.054 8 2.388 6.667 0 4c2.388-2.667 5.054-4 8-4 2.946 0 5.612 1.333 8 4-2.388 2.667-5.054 4-8 4zm.965-4.25a1 1 0 1 0 .07-2 1 1 0 0 0-.07 2z" fill="#7C8896"/></svg>