<svg viewBox="0 0 24 24" fill="none" xmlns="http://www.w3.org/2000/svg"><path fill-rule="evenodd" clip-rule="evenodd" d="M21.009 19.08C20.7 14.366 19.214 3 12.045 3c-4.068 0-6.306 3.658-7.538 7.684h2.111c.477-1.412 1.073-2.675 1.806-3.652.997-1.33 2.149-2.022 3.62-2.022 1.472 0 2.624.692 3.621 2.022 1.04 1.387 1.807 3.352 2.344 5.5.53 2.12.8 4.265.936 5.898.03.35-.25.65-.602.65H5.746a.602.602 0 01-.602-.65c.097-1.164.262-2.588.541-4.077H3.642a44.169 44.169 0 00-.561 4.726c-.073 1.109.82 2.01 1.93 2.01h14.066c1.111 0 2.004-.901 1.932-2.01zm-8.152-5.695H3V11.71h9.857L9.859 8.703l1.18-1.18 5.025 5.024-5.024 5.025-1.181-1.181 2.998-3.006z" fill="#1F2124"/></svg>