<svg viewBox="0 0 24 24" fill="none" xmlns="http://www.w3.org/2000/svg"><path fill-rule="evenodd" clip-rule="evenodd" d="M13.14 20.131l-.12.035a2.501 2.501 0 01-.613.077h-.119l-.107-.009a2.095 2.095 0 01-.383-.065l-.074-.011-.196-.07c-.13-.052-4.6-2-8.009-3.49-1.614.838-2.88 1.495-3.07 1.596a.507.507 0 00-.223.177.394.394 0 00-.052.308l.001.013c.012.05.035.095.065.139.007.01.007.021.016.032l.008.008c.022.025.05.046.08.068.029.024.058.049.093.067l.009.006c.153.071 11.554 5.047 11.711 5.11.012.006.025.005.037.009a.61.61 0 00.16.034.672.672 0 00.216-.02l.028-.01c.038-.012.075-.018.11-.037L23.89 18.3c.018-.008.027-.022.043-.032a.542.542 0 00.15-.137c.01-.014.024-.022.032-.037.007-.013.006-.027.013-.04a.446.446 0 00.035-.181.417.417 0 00-.051-.178c-.007-.014-.007-.027-.016-.04-.01-.014-.024-.022-.035-.034a.557.557 0 00-.074-.072.58.58 0 00-.088-.055c-.017-.01-.028-.022-.044-.03l-2.975-1.297-7.353 3.813c-.13.076-.292.125-.386.151z" fill="#626873"/><path fill-rule="evenodd" clip-rule="evenodd" d="M13.146 14.415l-.114.033c-.201.053-.418.08-.637.08h-.088l-.127-.01a2.145 2.145 0 01-.41-.071l-.068-.012-.174-.061c-.14-.057-4.603-2.003-8.009-3.49C1.905 11.722.64 12.38.45 12.48a.507.507 0 00-.223.177.397.397 0 00-.052.309l.001.012c.012.05.035.095.065.139.007.01.007.021.016.032l.008.008c.022.025.05.046.08.068.029.024.058.05.093.068.003 0 .006.004.009.005.153.071 11.554 5.048 11.711 5.111.012.005.025.004.037.008a.61.61 0 00.16.034c.014.002.028.001.04.001a.65.65 0 00.204-.031c.038-.012.075-.017.11-.037l11.182-5.797c.018-.01.027-.023.043-.032a.482.482 0 00.15-.138c.01-.014.024-.022.032-.036.007-.013.006-.027.013-.041a.435.435 0 00.035-.18.373.373 0 00-.015-.088.405.405 0 00-.036-.09c-.007-.014-.007-.028-.016-.04-.01-.014-.024-.023-.035-.035a.515.515 0 00-.162-.128c-.017-.008-.027-.02-.044-.029l-2.974-1.298-7.354 3.814c-.137.076-.291.124-.381.149z" fill="#626873"/><path fill-rule="evenodd" clip-rule="evenodd" d="M12.198.22c-.021-.01-.043-.01-.064-.017a.541.541 0 00-.222-.036.529.529 0 00-.218.048c-.012.006-.027.005-.04.012C11.506.304 1.03 6.07.448 6.397a.52.52 0 00-.222.187.444.444 0 00-.052.328l.001.013c.012.053.035.1.065.148.007.01.007.023.016.034l.008.008c.022.028.05.049.08.073.029.025.058.052.093.07a.023.023 0 00.009.007c.153.076 11.554 5.359 11.711 5.427.012.005.025.005.037.009a.575.575 0 00.2.037c.06 0 .118-.007.177-.023l.027-.01c.038-.012.075-.018.11-.039L23.89 6.51c.018-.01.027-.025.043-.035a.549.549 0 00.15-.146c.01-.014.024-.023.032-.039.007-.013.006-.028.013-.042a.524.524 0 00.035-.193.411.411 0 00-.015-.091.444.444 0 00-.036-.098c-.007-.014-.007-.028-.016-.041-.01-.015-.024-.024-.035-.037a.56.56 0 00-.162-.136c-.017-.01-.027-.023-.044-.03L12.198.221z" fill="#626873"/></svg>