<svg viewBox="0 0 24 24" fill="none" xmlns="http://www.w3.org/2000/svg"><path fill-rule="evenodd" clip-rule="evenodd" d="M12.815 18.637l-.101.029c-.169.043-.34.064-.51.064H12.103l-.09-.007a1.74 1.74 0 01-.319-.054l-.061-.01-.163-.058c-.108-.043-3.833-1.667-6.675-2.907l-2.559 1.328a.422.422 0 00-.184.149.329.329 0 00-.044.256v.01c.011.042.03.08.055.117.006.008.006.018.013.026l.007.007c.018.021.042.038.066.056.025.021.049.041.078.057.002 0 .005.004.007.005.128.059 9.629 4.205 9.76 4.258.01.005.02.004.03.007a.506.506 0 00.315.012l.023-.008c.03-.01.062-.015.09-.03l9.319-4.833c.015-.006.023-.019.036-.026a.461.461 0 00.125-.115c.008-.011.02-.018.026-.03.007-.01.006-.023.012-.034a.368.368 0 00.029-.151.323.323 0 00-.013-.072.343.343 0 00-.03-.076c-.006-.011-.006-.023-.013-.034-.008-.01-.02-.018-.03-.028a.445.445 0 00-.134-.106c-.014-.007-.023-.018-.037-.024l-2.479-1.082-6.128 3.178a1.403 1.403 0 01-.321.126z" fill="#000"/><path fill-rule="evenodd" clip-rule="evenodd" d="M12.819 13.873l-.095.028a2.104 2.104 0 01-.531.067h-.073l-.106-.008c-.1-.006-.22-.027-.342-.06l-.056-.01-.145-.05a2798 2798 0 01-6.674-2.909l-2.56 1.33a.423.423 0 00-.184.148.33.33 0 00-.044.257v.01c.011.041.03.079.055.116.006.008.006.017.013.026.002.004.005.005.007.007.018.021.042.039.066.057.025.02.049.041.078.056l.007.005c.128.06 9.629 4.206 9.76 4.26.01.003.02.002.03.006a.506.506 0 00.135.028l.033.001a.542.542 0 00.17-.026c.03-.01.062-.014.09-.03l9.319-4.832c.015-.008.023-.019.036-.027a.489.489 0 00.125-.114c.008-.012.02-.019.026-.03.007-.011.006-.023.012-.035a.362.362 0 00.029-.15.311.311 0 00-.013-.072.333.333 0 00-.03-.076c-.006-.012-.006-.023-.013-.034-.008-.011-.02-.018-.03-.028a.412.412 0 00-.134-.107c-.014-.007-.023-.017-.037-.024l-2.478-1.082-6.129 3.178a1.462 1.462 0 01-.317.124z" fill="#000"/><path fill-rule="evenodd" clip-rule="evenodd" d="M12.029 2.045c-.018-.008-.036-.01-.053-.015A.45.45 0 0011.79 2a.44.44 0 00-.182.04c-.01.005-.023.005-.034.01-.123.064-8.853 4.87-9.338 5.141a.433.433 0 00-.184.157.37.37 0 00-.044.273v.01c.011.045.03.085.055.124.006.01.006.02.013.029l.007.006c.018.024.042.041.066.06.025.022.049.044.078.06a5453.121 5453.121 0 009.766 4.528c.011.004.021.004.031.007a.482.482 0 00.315.012l.023-.008c.03-.01.062-.016.09-.033l9.319-5.13c.015-.008.023-.02.036-.029a.464.464 0 00.125-.122c.008-.011.02-.019.026-.032.007-.011.006-.023.012-.035A.435.435 0 0022 6.907a.345.345 0 00-.013-.076.367.367 0 00-.03-.081c-.006-.012-.006-.024-.013-.035-.008-.013-.02-.02-.03-.03a.457.457 0 00-.134-.113c-.014-.008-.023-.02-.037-.026l-9.714-4.501z" fill="#000"/></svg>
