<svg viewBox="0 0 18 18" xmlns="http://www.w3.org/2000/svg"><path d="M11.0454655,1.26591292 C9.7868354,0.933036999 8.46595062,0.912368954 7.19752795,1.20570305 C5.92907458,1.49903777 4.75139386,2.09750795 3.76669634,2.9491715 C2.78198962,3.80083506 2.02001816,4.87995516 1.54691062,6.09287666 C1.07380708,7.30576747 0.903868219,8.61581601 1.05184575,9.90928788 C1.19982358,11.2027598 1.66124671,12.440577 2.39606312,13.5152981 C3.13087953,14.5900193 4.11687555,15.4691663 5.26849405,16.0764252 C6.42011255,16.6836841 7.7025333,17.0007284 9.004447,17 C11.0112378,17.0020484 12.9450605,16.2474106 14.420047,14.8866497 L12.528372,12.9093285 C11.7733658,13.5900773 10.837152,14.0372792 9.83315799,14.1968144 C8.829164,14.3563802 7.80042778,14.2213724 6.87161208,13.8082141 C5.94276568,13.3950251 5.15362383,12.7213981 4.59980937,11.8688965 C4.04599491,11.0164256 3.75123399,10.0216409 3.75123399,9.00503022 C3.75123399,7.98845023 4.04599491,6.9936655 4.59980937,6.14116391 C5.15362383,5.28866231 5.94276568,4.61503532 6.87161208,4.20187703 C7.80042778,3.78870032 8.829164,3.65371092 9.83315799,3.81324914 C10.837152,3.97278737 11.7733658,4.4200138 12.528372,5.10076262 L14.420047,3.1158684 C13.4624677,2.23381427 12.3040957,1.59878945 11.0454655,1.26591292 Z M15.3148805,11.7003056 C15.187854,11.7255697 15.0711419,11.7879471 14.9795712,11.8795179 C14.8879697,11.9711194 14.8255923,12.0878007 14.8003282,12.2148579 C14.7750641,12.3418844 14.7880185,12.4735768 14.837595,12.5932359 C14.8871715,12.7129256 14.9710986,12.8152098 15.0788163,12.8871649 C15.1865033,12.9591199 15.3131307,12.9975226 15.4426437,12.9975226 C15.6163611,12.9975226 15.782926,12.9285452 15.9057469,12.8057243 C16.0285678,12.6829034 16.0975759,12.5163078 16.0975759,12.3426211 C16.0975759,12.2130774 16.0591425,12.0864808 15.9871875,11.9787631 C15.9152324,11.8710761 15.8129482,11.7871183 15.6932891,11.7375724 C15.5735994,11.6879959 15.4419376,11.6750108 15.3148805,11.7003056 Z M16.0680755,9.4609195 C15.9410491,9.48621428 15.824337,9.548561 15.7327662,9.64016248 C15.6411647,9.73176396 15.5787873,9.84844534 15.5535232,9.97550249 C15.5282591,10.1025289 15.5412135,10.2342214 15.59079,10.3538805 C15.6403666,10.4735395 15.7242937,10.5758237 15.8320114,10.6478095 C15.9396984,10.7197645 16.0663257,10.7581672 16.1958387,10.7581672 C16.3693412,10.7574918 16.5355378,10.6882996 16.6582052,10.5656321 C16.7808726,10.4429341 16.8500955,10.2767375 16.8507709,10.1032657 C16.8507709,9.97372204 16.8123682,9.84709465 16.7403825,9.73940765 C16.6684274,9.63172066 16.5661432,9.54776286 16.4464842,9.49818632 C16.3267944,9.44864048 16.1951327,9.43565542 16.0680755,9.4609195 Z M9.61766121,7.39911871 C9.30098531,7.26797879 8.95253744,7.23365893 8.6163686,7.30051819 C8.28019976,7.36737745 7.97141312,7.53243816 7.72905598,7.7747953 C7.48666815,8.01715244 7.32163813,8.32596977 7.25474817,8.66210792 C7.18788892,8.99827676 7.22220877,9.34672462 7.3533794,9.66340053 C7.48455002,9.98007643 7.70667747,10.2507367 7.9916735,10.4411536 C8.27663884,10.6315705 8.61170257,10.7332101 8.95447139,10.7332101 C9.41407507,10.7332101 9.85486116,10.550621 10.1798868,10.2256261 C10.5048817,9.90063117 10.6874707,9.45984509 10.6874707,9.00021071 C10.6874707,8.65747259 10.5858312,8.32240885 10.3953836,8.03741282 C10.2049667,7.75241679 9.93430641,7.53028933 9.61766121,7.39911871 Z M14.4967908,9.42273175 C14.3771318,9.37315521 14.2454393,9.36020085 14.1184129,9.38546493 C13.9913557,9.41072901 13.8746743,9.47310643 13.7830728,9.56470791 C13.6915021,9.6562787 13.6291246,9.77299077 13.6038299,9.90001722 C13.5785658,10.0270744 13.5915508,10.1587362 13.6411274,10.2784259 C13.6906732,10.3980849 13.774631,10.5003692 13.882318,10.5723242 C13.9900357,10.6442793 14.1166324,10.6827126 14.2461761,10.6827126 C14.4198628,10.6827126 14.5864584,10.6137045 14.7092793,10.4908836 C14.8320694,10.3680627 14.9010775,10.2014978 14.9010775,10.0277804 C14.9010775,9.89826746 14.8626749,9.77164008 14.7907199,9.66395308 C14.7187648,9.55623539 14.6164499,9.47230829 14.4967908,9.42273175 Z M14.4967908,7.36983325 C14.3771318,7.32025671 14.2454393,7.30730235 14.1184129,7.33256643 C13.9913557,7.35783051 13.8746743,7.42020793 13.7830728,7.51180941 C13.6915021,7.60338019 13.6291246,7.72009227 13.6038299,7.84711872 C13.5785658,7.97417587 13.5915508,8.10583765 13.6411274,8.22552739 C13.6906732,8.34518643 13.774631,8.44747066 13.882318,8.51942571 C13.9900357,8.59138077 14.1166324,8.6298141 14.2461761,8.6298141 C14.4198628,8.6298141 14.5864584,8.56080601 14.7092793,8.43798512 C14.8320694,8.31516423 14.9010775,8.14856864 14.9010775,7.97488192 C14.9010775,7.84536896 14.8626749,7.71874158 14.7907199,7.61102388 C14.7187648,7.50333689 14.6164499,7.41940979 14.4967908,7.36983325 Z M16.0680755,7.25692767 C15.9410491,7.28222245 15.824337,7.34459987 15.7327662,7.43617065 C15.6411647,7.52777213 15.5787873,7.64445351 15.5535232,7.77151066 C15.5282591,7.89853712 15.5412135,8.03022959 15.59079,8.14988864 C15.6403666,8.26957837 15.7242937,8.37183191 15.8320114,8.44381765 C15.9396984,8.51577271 16.0663257,8.55417534 16.1958387,8.55417534 C16.3693412,8.55353069 16.5355378,8.48430772 16.6582052,8.36164032 C16.7808726,8.23894222 16.8500955,8.0727457 16.8507709,7.89927386 C16.8507709,7.7697302 16.8123682,7.64313352 16.7403825,7.53541582 C16.6684274,7.42772883 16.5661432,7.34377103 16.4464842,7.29422519 C16.3267944,7.24464865 16.1951327,7.23166359 16.0680755,7.25692767 Z M15.3527613,5.05287445 C15.2257348,5.07813853 15.1090227,5.14051594 15.0174212,5.23211743 C14.9258505,5.32371891 14.863473,5.44040029 14.838209,5.56742674 C14.8129449,5.69448389 14.8258992,5.82617637 14.8754758,5.94583541 C14.9250523,6.06549445 15.0089794,6.16777868 15.1166664,6.23973373 C15.2243841,6.31171948 15.3510115,6.35012211 15.4805244,6.35012211 C15.6542112,6.35012211 15.8208068,6.28111403 15.9436277,6.15829314 C16.0664485,6.03547225 16.1354259,5.86890736 16.1354259,5.69522063 C16.1354259,5.56567698 16.0970233,5.4390496 16.0250682,5.3313626 C15.9531132,5.2236449 15.850829,5.13971781 15.7311392,5.09014127 C15.6114802,5.04056473 15.4797877,5.02761036 15.3527613,5.05287445 Z" fill="#E03875" fill-rule="nonzero" /></svg>
