<svg viewbox="0 0 24 24" fill="none" xmlns="http://www.w3.org/2000/svg"><path d="M3.019 9.528a3.019 3.019 0 100 6.037 3.019 3.019 0 000-6.037zM14.166 7.5c.192 0 .261.144.261.238l.003 1.527c0 .158.128.273.285.273h1.36c.107 0 .226.102.226.285v.956c0 .18-.138.261-.237.261h-1.35a.28.28 0 00-.28.29v1.233c0 .027-.004.054-.003.081a1.506 1.506 0 001.737 1.41.242.242 0 01.28.212l.108 1.011a.254.254 0 01-.22.278 3.02 3.02 0 01-3.422-2.909V7.733c0-.155.12-.232.248-.232h1.004zm5.654 2.028c.541 0 1.049.144 1.488.394v-.128c0-.155.135-.256.262-.256h1.006c.192 0 .262.162.262.256l.002 2.752v.01c.002 1.15.13 1.455.985 1.455.1 0 .175.1.175.2v1.074c0 .301-.645.28-.767.28-.712-.006-1.168-.293-1.452-.725a3.019 3.019 0 11-1.96-5.312zM8.062 7.5c.115 0 .258.065.258.24l.001 3.423c0 .245.3.363.467.183l1.606-1.73c.019-.018.046-.047.12-.068a.428.428 0 01.117-.01h1.233c.252 0 .326.279.21.422l-1.793 1.99c-.293.311-.32.43-.064.737l.117.123 2.256 2.312c.117.143.041.426-.204.426h-1.361a.502.502 0 01-.13-.012c-.073-.022-.089-.051-.108-.07-.007-.007-1.258-1.324-2.01-2.094a.266.266 0 00-.457.186v1.751c0 .117-.102.23-.258.23h-1.01c-.115 0-.26-.048-.26-.223V7.719c0-.103.085-.219.26-.219h1.01zm-5.043 3.537a1.51 1.51 0 110 3.02 1.51 1.51 0 010-3.02zm16.802 0a1.51 1.51 0 100 3.019 1.51 1.51 0 000-3.02z" fill="#007DC1"/></svg>
