<svg width="24" height="24" fill="none" xmlns="http://www.w3.org/2000/svg"><path d="M21 11.713c0-.624-.05-1.252-.159-1.866h-8.66v3.536h4.96a4.25 4.25 0 01-1.836 2.79v2.294h2.959c1.737-1.6 2.736-3.96 2.736-6.754z" fill="#4285F4"/><path d="M12.181 20.683c2.477 0 4.565-.813 6.086-2.216l-2.958-2.294c-.823.56-1.886.877-3.124.877-2.396 0-4.426-1.616-5.155-3.789H3.977v2.365a9.183 9.183 0 008.204 5.057z" fill="#34A853"/><path d="M7.026 13.261a5.5 5.5 0 010-3.515V7.381h-3.05a9.19 9.19 0 000 8.245l3.05-2.365z" fill="#FBBC04"/><path d="M12.181 5.954a4.99 4.99 0 013.523 1.376l2.62-2.62a8.824 8.824 0 00-6.143-2.39 9.18 9.18 0 00-8.204 5.061l3.05 2.365c.725-2.176 2.76-3.792 5.154-3.792z" fill="#EA4335"/></svg>