<svg viewBox="0 0 24 24" fill="none" xmlns="http://www.w3.org/2000/svg"><path fill-rule="evenodd" d="M6.5 20v-.25l-.2-.15A9.485 9.485 0 012.5 12c0-1.663.427-3.225 1.177-4.583l.117-.214L3.7 6.98a2.5 2.5 0 013.28-3.28l.224.095.214-.117A9.455 9.455 0 0112 2.5c1.09 0 2.135.183 3.108.52l.243.084.21-.148a2.5 2.5 0 013.84 2.746l-.073.247.158.202A9.457 9.457 0 0121.5 12a9.57 9.57 0 01-.129 1.568l-.048.29.23.183a2.5 2.5 0 01-2.19 4.377l-.285-.075-.203.214a9.471 9.471 0 01-7.579 2.917l-.248-.018-.165.188A2.5 2.5 0 016.5 20.001zm11.41-1.891l.31-.3-.251-.351A2.486 2.486 0 0117.5 16c0-.264.04-.518.116-.756l.114-.358-.313-.209-3.14-2.093-.459-.306-.26.487-2.703 5.07-.159.297.218.26c.366.434.586.995.586 1.608v.5h.5a8.474 8.474 0 005.91-2.391zm-8.434-.564l.363.07.173-.325 2.757-5.17.213-.4-.377-.25-4.883-3.256-.252-.168-.266.145-.009.005-.334.184.088.37 2.004 8.398.078.33.336.049c.037.005.073.011.11.018zm-1.747.301l.318-.187-.086-.359-2.02-8.465-.075-.317-.32-.06a2.478 2.478 0 01-.623-.201l-.461-.22-.21.465A8.471 8.471 0 003.5 12a8.481 8.481 0 002.91 6.404l.377.329.33-.377c.175-.2.382-.373.612-.51zM19.043 7.24l-.275-.405-.411.266a2.486 2.486 0 01-1.628.386l-.335-.037-.16.298-1.73 3.245-.213.4.377.25 3.403 2.27.276.183.277-.183a2.485 2.485 0 011.324-.412l.433-.008.053-.43c.044-.348.066-.702.066-1.062a8.463 8.463 0 00-1.457-4.76zm-6.047 3.289l.46.306.259-.487 1.598-2.997.174-.326-.26-.262a2.49 2.49 0 01-.654-2.366l.118-.476-.473-.127A8.51 8.51 0 0012 3.5c-1.246 0-2.43.268-3.498.751l-.466.21.22.462a2.492 2.492 0 01.064 2.01l-.151.377.338.225 4.49 2.993z" stroke="#000"/></svg>
