<svg viewBox="0 0 24 24" fill="none" xmlns="http://www.w3.org/2000/svg"><path fill-rule="evenodd" clip-rule="evenodd" d="M18.8532 7.87695C20.0944 7.50942 21 6.36046 21 5C21 3.34315 19.6569 2 18 2C16.3431 2 15 3.34315 15 5C15 6.25039 15.765 7.3221 16.8524 7.77269L16.602 10.0262C15.9316 10.115 15.3311 10.4253 14.8763 10.881L8.97505 8.6113C8.78445 7.13807 7.52513 6 6 6C4.34315 6 3 7.34315 3 9C3 10.3062 3.83481 11.4175 5 11.8293V16.1707C3.83481 16.5825 3 17.6938 3 19C3 20.6569 4.34315 22 6 22C7.65685 22 9 20.6569 9 19C9 17.6938 8.16519 16.5825 7 16.1707V11.8293C7.64469 11.6014 8.18824 11.1595 8.54521 10.5888L14.0155 12.6928C14.0053 12.7938 14 12.8963 14 13C14 14.6569 15.3431 16 17 16C18.6569 16 20 14.6569 20 13C20 11.9179 19.4271 10.9697 18.5682 10.442L18.8532 7.87695ZM18 6C18.5523 6 19 5.55228 19 5C19 4.44772 18.5523 4 18 4C17.4477 4 17 4.44772 17 5C17 5.55228 17.4477 6 18 6ZM7 9C7 9.55228 6.55228 10 6 10C5.44772 10 5 9.55228 5 9C5 8.44772 5.44772 8 6 8C6.55228 8 7 8.44772 7 9Z" fill="#000"/></svg>
