<svg viewBox="0 0 24 24" fill="none" xmlns="http://www.w3.org/2000/svg"><path fill-rule="evenodd" clip-rule="evenodd" d="M8.35 3c0-.911.739-1.65 1.65-1.65h4c.911 0 1.65.739 1.65 1.65v4A1.65 1.65 0 0114 8.65h-1.417v.032l-.05 2.018h8.817a.65.65 0 110 1.3h-3.767a.65.65 0 01.017.15v2.2H19c.911 0 1.65.739 1.65 1.65v4A1.65 1.65 0 0119 21.65h-4A1.65 1.65 0 0113.35 20v-4c0-.911.739-1.65 1.65-1.65h1.3v-2.2a.65.65 0 01.017-.15h-4.305a.648.648 0 01-.292 0H7.583a.653.653 0 01.017.15v2.2H9c.911 0 1.65.739 1.65 1.65v4A1.65 1.65 0 019 21.65H5A1.65 1.65 0 013.35 20v-4c0-.911.739-1.65 1.65-1.65h1.3v-2.2a.67.67 0 01.017-.15H2.65a.65.65 0 110-1.3h8.582l.052-2.05H10A1.65 1.65 0 018.35 7V3zM10 2.65a.35.35 0 00-.35.35v4c0 .193.157.35.35.35h4a.35.35 0 00.35-.35V3a.35.35 0 00-.35-.35h-4zm-5 13a.35.35 0 00-.35.35v4c0 .193.157.35.35.35h4a.35.35 0 00.35-.35v-4a.35.35 0 00-.35-.35H5zm9.65.35a.35.35 0 01.35-.35h4a.35.35 0 01.35.35v4a.35.35 0 01-.35.35h-4a.35.35 0 01-.35-.35v-4z" fill="#6F7682"/></svg>