<svg viewBox="0 0 24 24" fill="none" xmlns="http://www.w3.org/2000/svg"><path fill-rule="evenodd" clip-rule="evenodd" d="M22 12c0 5.523-4.477 10-10 10S2 17.523 2 12 6.477 2 12 2s10 4.477 10 10zm-10.19 7.998c.117-.172.254-.386.402-.64.3-.515.642-1.192.954-2.02a23.384 23.384 0 00-2.573-.082c.274.878.624 1.79 1.062 2.737l.155.005zm-1.913-.277a23.011 23.011 0 01-.842-2.367c-.521.055-1.035.133-1.536.238.212.48.455.973.732 1.477a7.947 7.947 0 001.646.652zm-4.438-3.113l.065-.023c-1.058-3.202-.9-5.94-.307-8.083l-.362-.104A7.966 7.966 0 004 12a7.96 7.96 0 001.46 4.608zm.234-9.53l.01.002.011-.03a9.295 9.295 0 00-.02.028zM8.97 4.594a9.135 9.135 0 00-.752.955 11.185 11.185 0 00-1.04 1.891c.504.108 1.043.21 1.607.299l.014-.056a15.54 15.54 0 011.376-3.474 7.936 7.936 0 00-1.205.385zM12.055 4a11.06 11.06 0 00-.403.643c-.44.757-.977 1.869-1.368 3.292.357.037.72.068 1.088.091.75.048 1.508.063 2.262.036a21.41 21.41 0 00-1.428-4.06A8.09 8.09 0 0012.055 4zm2.976 15.406c-.436.178-.89.32-1.36.42.337-.614.705-1.39 1.029-2.316a29.74 29.74 0 011.518.252c-.15.257-.297.487-.435.689a9.144 9.144 0 01-.752.955zm3.42-2.673A7.964 7.964 0 0020 12a7.967 7.967 0 00-.819-3.53c-.118.05-.238.098-.359.144.712 2.881.448 5.342-.154 7.276-.09.287-.187.562-.288.824l.07.019zM15.749 4.93c.515.937.913 1.835 1.213 2.693-.587.145-1.195.252-1.815.325a22.234 22.234 0 00-1.197-3.71 7.946 7.946 0 011.8.692zM6.673 8.865c.56.125 1.165.241 1.8.343-.312 1.893-.342 4.138.207 6.678a16.54 16.54 0 00-1.71.29c-.993-2.96-.825-5.43-.297-7.31zm3.287.544c-.297 1.77-.328 3.906.23 6.36a24.426 24.426 0 012.532.033c.306.019.61.043.909.072.44-1.692.67-3.82.292-6.322-.894.04-1.785.026-2.645-.028a28.454 28.454 0 01-1.318-.115zm6.942 6.96a31.193 31.193 0 00-1.77-.313c.45-1.824.665-4.056.29-6.63a16.05 16.05 0 001.966-.362c.617 2.571.364 4.722-.153 6.38-.101.326-.214.635-.332.925z" fill="#6F7682"/></svg>