<svg width="16" height="16" fill="%23000" xmlns="http://www.w3.org/2000/svg"><g fill-rule="EVENODD"><path d="M0 2.25A2.25 2.25 0 012.25 0h11.5A2.25 2.25 0 0116 2.25v11.5A2.25 2.25 0 0113.75 16H2.25A2.25 2.25 0 010 13.75V2.25zm2.25-.75a.75.75 0 00-.75.75v11.5c0 .414.336.75.75.75h11.5a.75.75 0 00.75-.75V2.25a.75.75 0 00-.75-.75H2.25z"/><path d="M8 4a4 4 0 100 8 4 4 0 000-8zM2.5 8a5.5 5.5 0 1111 0 5.5 5.5 0 01-11 0z"/><path d="M5 8a1 1 0 011-1h.01a1 1 0 010 2H6a1 1 0 01-1-1zM9.01 8a1 1 0 011-1h.01a1 1 0 110 2h-.01a1 1 0 01-1-1z"/></g></svg>
