<svg viewBox="0 0 24 24" fill="none" xmlns="http://www.w3.org/2000/svg"><path fill-rule="evenodd" clip-rule="evenodd" d="M0,10.0867585 L6,10.0867585 L6,8.40563206 L0,8.40563206 L0,10.0867585 L0,10.0867585 Z M3,12.4056321 L3,14.0867585 L0,14.0867585 L0,12.4056321 L3,12.4056321 Z M15.1301377,0 L15.1301377,1.68112641 L0,1.68112641 L0,0 L15.1301377,0 Z M13.8692929,4.62309763 L13.8692929,11.8384922 L16.8112641,8.89802258 L18,10.0867585 L13.0287297,15.0580288 L8.05745938,10.0867585 L9.24619526,8.89802258 L12.1881665,11.8393328 L12.1881665,4.62309763 L13.8692929,4.62309763 Z M10.0867585,4.20281603 L10.0867585,5.88394244 L0,5.88394244 L0,4.20281603 L10.0867585,4.20281603 Z" fill="#000"/></svg>
