<svg viewBox="0 0 26.5 26" fill="none" xmlns="http://www.w3.org/2000/svg"><path d="M1 13C1 6.373 6.373 1 13 1s12 5.373 12 12-5.373 12-12 12S1 19.627 1 13z"/><path fill-rule="evenodd" clip-rule="evenodd" d="M13 16.074l3.605 2.176-.957-4.1 3.185-2.76-4.194-.356L13 7.167l-1.64 3.867-4.193.356 3.185 2.76-.957 4.1L13 16.074z" fill="%23C62A71"/><path d="M13 24C6.925 24 2 19.075 2 13H0c0 7.18 5.82 13 13 13v-2zm11-11c0 6.075-4.925 11-11 11v2c7.18 0 13-5.82 13-13h-2zM13 2c6.075 0 11 4.925 11 11h2c0-7.18-5.82-13-13-13v2zm0-2C5.82 0 0 5.82 0 13h2C2 6.925 6.925 2 13 2V0z" fill="#E1E4E7"/></svg>